ffmpeg version 5.1.7-0+deb12u1 Copyright (c) 2000-2025 the FFmpeg developers
  built with gcc 12 (Debian 12.2.0-14+deb12u1)
  configuration: --prefix=/usr --extra-version=0+deb12u1 --toolchain=hardened --libdir=/usr/lib/x86_64-linux-gnu --incdir=/usr/include/x86_64-linux-gnu --arch=amd64 --enable-gpl --disable-stripping --enable-gnutls --enable-ladspa --enable-libaom --enable-libass --enable-libbluray --enable-libbs2b --enable-libcaca --enable-libcdio --enable-libcodec2 --enable-libdav1d --enable-libflite --enable-libfontconfig --enable-libfreetype --enable-libfribidi --enable-libglslang --enable-libgme --enable-libgsm --enable-libjack --enable-libmp3lame --enable-libmysofa --enable-libopenjpeg --enable-libopenmpt --enable-libopus --enable-libpulse --enable-librabbitmq --enable-librist --enable-librubberband --enable-libshine --enable-libsnappy --enable-libsoxr --enable-libspeex --enable-libsrt --enable-libssh --enable-libsvtav1 --enable-libtheora --enable-libtwolame --enable-libvidstab --enable-libvorbis --enable-libvpx --enable-libwebp --enable-libx265 --enable-libxml2 --enable-libxvid --enable-libzimg --enable-libzmq --enable-libzvbi --enable-lv2 --enable-omx --enable-openal --enable-opencl --enable-opengl --enable-sdl2 --disable-sndio --enable-libjxl --enable-pocketsphinx --enable-librsvg --enable-libmfx --enable-libdc1394 --enable-libdrm --enable-libiec61883 --enable-chromaprint --enable-frei0r --enable-libx264 --enable-libplacebo --enable-librav1e --enable-shared
  libavutil      57. 28.100 / 57. 28.100
  libavcodec     59. 37.100 / 59. 37.100
  libavformat    59. 27.100 / 59. 27.100
  libavdevice    59.  7.100 / 59.  7.100
  libavfilter     8. 44.100 /  8. 44.100
  libswscale      6.  7.100 /  6.  7.100
  libswresample   4.  7.100 /  4.  7.100
  libpostproc    56.  6.100 / 56.  6.100
Input #0, flv, from 'rtmp://192.168.126.35:1935/bcs/channel0_main.bcs?channel=0&stream=1&user=admin&password=Grmbl_123_Wmpf':
  Metadata:
    |RtmpSampleAccess: true
    displayWidth    : 2560
    displayHeight   : 1440
  Duration: 00:00:00.00, start: 179893.620000, bitrate: N/A
  Stream #0:0: Video: h264 (High), yuv420p(progressive), 2560x1440, 6 fps, 6 tbr, 1k tbn
  Stream #0:1: Audio: aac (LC), 16000 Hz, mono, fltp
[segment @ 0x559b854d1e40] Opening 'data/recordings/C0162_00000000.mp4' for writing
Output #1, segment, to 'data/recordings/C0162_%08d.mp4':
  Metadata:
    |RtmpSampleAccess: true
    displayWidth    : 2560
    displayHeight   : 1440
    encoder         : Lavf59.27.100
  Stream #1:0: Video: h264 (High), yuv420p(progressive), 2560x1440, q=2-31, 6 fps, 6 tbr, 16k tbn
  Stream #1:1: Audio: aac (LC), 16000 Hz, mono, fltp
Stream mapping:
  Stream #0:0 -> #0:0 (h264 (native) -> rawvideo (native))
  Stream #0:0 -> #1:0 (copy)
  Stream #0:1 -> #1:1 (copy)
Press [q] to stop, [?] for help
Output #0, rawvideo, to '/home/ludger/shm/fifo/cam162.pipe':
  Metadata:
    |RtmpSampleAccess: true
    displayWidth    : 2560
    displayHeight   : 1440
    encoder         : Lavf59.27.100
  Stream #0:0: Video: rawvideo (BGR[24] / 0x18524742), bgr24(pc, gbr/unknown/unknown, progressive), 2560x1440, q=2-31, 530841 kb/s, 6 fps, 6 tbn
    Metadata:
      encoder         : Lavc59.37.100 rawvideo
frame=    1 fps=0.0 q=0.0 q=-1.0 size=       0kB time=00:00:02.16 bitrate=   0.0kbits/s speed=40.7x    frame=   16 fps=0.0 q=-0.0 q=-1.0 size=  162000kB time=00:00:04.66 bitrate=284477.2kbits/s speed=8.08x    frame=   30 fps= 28 q=-0.0 q=-1.0 size=  313200kB time=00:00:06.99 bitrate=366634.9kbits/s speed=6.48x    frame=   37 fps= 22 q=-0.0 q=-1.0 size=  388800kB time=00:00:08.16 bitrate=390034.9kbits/s speed=4.89x    frame=   42 fps= 19 q=-0.0 q=-1.0 size=  442800kB time=00:00:08.99 bitrate=403088.4kbits/s speed=4.08x    frame=   45 fps= 16 q=-0.0 q=-1.0 size=  475200kB time=00:00:09.49 bitrate=409812.9kbits/s speed=3.48x    frame=   49 fps= 14 q=-0.0 q=-1.0 size=  518400kB time=00:00:10.16 bitrate=417736.2kbits/s speed=2.93x    [segment @ 0x559b854d1e40] Opening 'data/recordings/C0162_00000001.mp4' for writing
frame=   53 fps= 13 q=-0.0 q=-1.0 size=  561600kB time=00:00:10.83 bitrate=424723.1kbits/s speed=2.72x    frame=   56 fps= 12 q=-0.0 q=-1.0 size=  594000kB time=00:00:11.33 bitrate=429405.3kbits/s speed=2.46x    frame=   60 fps= 12 q=-0.0 q=-1.0 size=  637200kB time=00:00:11.99 bitrate=435029.2kbits/s speed=2.34x    frame=   61 fps= 11 q=-0.0 q=-1.0 size=  648000kB time=00:00:12.16 bitrate=436329.8kbits/s speed=2.13x    frame=   67 fps= 11 q=-0.0 q=-1.0 size=  712800kB time=00:00:13.16 bitrate=443541.9kbits/s speed=2.09x    frame=   70 fps= 10 q=-0.0 q=-1.0 size=  745200kB time=00:00:13.66 bitrate=446736.2kbits/s speed=1.99x    frame=   73 fps=9.5 q=-0.0 q=-1.0 size=  777600kB time=00:00:14.16 bitrate=449736.7kbits/s speed=1.84x    frame=   78 fps=9.5 q=-0.0 q=-1.0 size=  831600kB time=00:00:15.01 bitrate=453771.2kbits/s speed=1.83x    frame=   81 fps=9.3 q=-0.0 q=-1.0 size=  864000kB time=00:00:15.49 bitrate=456695.0kbits/s speed=1.77x    frame=   84 fps=9.0 q=-0.0 q=-1.0 size=  896400kB time=00:00:16.10 bitrate=456077.8kbits/s speed=1.73x    frame=   88 fps=9.0 q=-0.0 q=-1.0 size=  939600kB time=00:00:16.66 bitrate=461904.4kbits/s speed= 1.7x    frame=   91 fps=8.8 q=-0.0 q=-1.0 size=  972000kB time=00:00:17.16 bitrate=463912.5kbits/s speed=1.65x    frame=   94 fps=8.6 q=-0.0 q=-1.0 size= 1004400kB time=00:00:17.70 bitrate=464835.0kbits/s speed=1.62x    frame=   97 fps=8.3 q=-0.0 q=-1.0 size= 1036800kB time=00:00:18.16 bitrate=467571.5kbits/s speed=1.56x    frame=  102 fps=8.4 q=-0.0 q=-1.0 size= 1090800kB time=00:00:18.99 bitrate=470355.0kbits/s speed=1.56x    frame=  105 fps=8.3 q=-0.0 q=-1.0 size= 1123200kB time=00:00:19.49 bitrate=471906.1kbits/s speed=1.54x    frame=  108 fps=8.2 q=-0.0 q=-1.0 size= 1155600kB time=00:00:19.99 bitrate=473379.6kbits/s speed=1.51x    frame=  109 fps=7.9 q=-0.0 q=-1.0 size= 1166400kB time=00:00:20.16 bitrate=473846.7kbits/s speed=1.47x    [segment @ 0x559b854d1e40] Opening 'data/recordings/C0162_00000002.mp4' for writing
frame=  114 fps=8.0 q=-0.0 q=-1.0 size= 1220400kB time=00:00:21.09 bitrate=473973.2kbits/s speed=1.48x    frame=  118 fps=7.9 q=-0.0 q=-1.0 size= 1263600kB time=00:00:21.66 bitrate=477792.8kbits/s speed=1.46x    frame=  121 fps=7.7 q=-0.0 q=-1.0 size= 1296000kB time=00:00:22.16 bitrate=478989.5kbits/s speed=1.41x    frame=  127 fps=7.8 q=-0.0 q=-1.0 size= 1360800kB time=00:00:23.16 bitrate=481248.6kbits/s speed=1.42x    frame=  130 fps=7.7 q=-0.0 q=-1.0 size= 1393200kB time=00:00:23.66 bitrate=482296.5kbits/s speed= 1.4x    frame=  133 fps=7.5 q=-0.0 q=-1.0 size= 1425600kB time=00:00:24.16 bitrate=483321.0kbits/s speed=1.37x    frame=  138 fps=7.6 q=-0.0 q=-1.0 size= 1479600kB time=00:00:24.99 bitrate=484892.3kbits/s speed=1.37x    frame=  141 fps=7.5 q=-0.0 q=-1.0 size= 1512000kB time=00:00:25.57 bitrate=484350.8kbits/s speed=1.37x    frame=  145 fps=7.5 q=-0.0 q=-1.0 size= 1555200kB time=00:00:26.16 bitrate=486953.6kbits/s speed=1.36x    frame=  148 fps=7.5 q=-0.0 q=-1.0 size= 1587600kB time=00:00:26.66 bitrate=487776.6kbits/s speed=1.34x    frame=  152 fps=7.5 q=-0.0 q=-1.0 size= 1630800kB time=00:00:27.33 bitrate=488821.2kbits/s speed=1.34x    frame=  154 fps=7.4 q=-0.0 q=-1.0 size= 1652400kB time=00:00:27.66 bitrate=489333.4kbits/s speed=1.32x    frame=  157 fps=7.2 q=-0.0 q=-1.0 size= 1684800kB time=00:00:28.16 bitrate=490052.9kbits/s speed= 1.3x    frame=  162 fps=7.3 q=-0.0 q=-1.0 size= 1738800kB time=00:00:28.99 bitrate=491230.8kbits/s speed=1.31x    frame=  165 fps=7.3 q=-0.0 q=-1.0 size= 1771200kB time=00:00:29.54 bitrate=491170.6kbits/s speed= 1.3x    frame=  168 fps=7.2 q=-0.0 q=-1.0 size= 1803600kB time=00:00:29.99 bitrate=492551.3kbits/s speed=1.29x    [segment @ 0x559b854d1e40] Opening 'data/recordings/C0162_00000003.mp4' for writing
frame=  170 fps=7.2 q=-0.0 q=-1.0 size= 1825200kB time=00:00:30.33 bitrate=492977.5kbits/s speed=1.28x    frame=  175 fps=7.2 q=-0.0 q=-1.0 size= 1879200kB time=00:00:31.16 bitrate=493979.4kbits/s speed=1.28x    frame=  178 fps=7.2 q=-0.0 q=-1.0 size= 1911600kB time=00:00:31.66 bitrate=494561.5kbits/s speed=1.27x    frame=  181 fps=7.0 q=-0.0 q=-1.0 size= 1944000kB time=00:00:32.16 bitrate=495125.5kbits/s speed=1.25x    frame=  186 fps=7.1 q=-0.0 q=-1.0 size= 1998000kB time=00:00:32.99 bitrate=496032.5kbits/s speed=1.26x    frame=  189 fps=7.1 q=-0.0 q=-1.0 size= 2030400kB time=00:00:33.57 bitrate=495429.0kbits/s speed=1.26x    frame=  193 fps=7.1 q=-0.0 q=-1.0 size= 2073600kB time=00:00:34.16 bitrate=497245.5kbits/s speed=1.25x    frame=  196 fps=7.1 q=-0.0 q=-1.0 size= 2106000kB time=00:00:34.66 bitrate=497730.1kbits/s speed=1.25x    frame=  199 fps=7.0 q=-0.0 q=-1.0 size= 2138400kB time=00:00:35.16 bitrate=498200.9kbits/s speed=1.24x    frame=  202 fps=7.0 q=-0.0 q=-1.0 size= 2170800kB time=00:00:35.66 bitrate=498658.6kbits/s speed=1.23x    frame=  205 fps=6.9 q=-0.0 q=-1.0 size= 2203200kB time=00:00:36.16 bitrate=499103.6kbits/s speed=1.22x    frame=  211 fps=6.9 q=-0.0 q=-1.0 size= 2268000kB time=00:00:37.16 bitrate=499957.6kbits/s speed=1.22x    frame=  215 fps=6.9 q=-0.0 q=-1.0 size= 2311200kB time=00:00:37.82 bitrate=500497.5kbits/s speed=1.22x    frame=  217 fps=6.8 q=-0.0 q=-1.0 size= 2332800kB time=00:00:38.16 bitrate=500753.8kbits/s speed= 1.2x    frame=  222 fps=6.9 q=-0.0 q=-1.0 size= 2386800kB time=00:00:39.01 bitrate=501183.3kbits/s speed=1.21x    frame=  225 fps=6.9 q=-0.0 q=-1.0 size= 2419200kB time=00:00:39.49 bitrate=501773.7kbits/s speed=1.21x    frame=  229 fps=6.9 q=-0.0 q=-1.0 size= 2462400kB time=00:00:40.16 bitrate=502252.1kbits/s speed=1.21x    [segment @ 0x559b854d1e40] Opening 'data/recordings/C0162_00000004.mp4' for writing
frame=  232 fps=6.9 q=-0.0 q=-1.0 size= 2494800kB time=00:00:40.66 bitrate=502603.6kbits/s speed= 1.2x    frame=  235 fps=6.9 q=-0.0 q=-1.0 size= 2527200kB time=00:00:41.16 bitrate=502946.6kbits/s speed= 1.2x    frame=  238 fps=6.8 q=-0.0 q=-1.0 size= 2559600kB time=00:00:41.66 bitrate=503281.4kbits/s speed= 1.2x    frame=  241 fps=6.8 q=-0.0 q=-1.0 size= 2592000kB time=00:00:42.16 bitrate=503608.2kbits/s speed=1.18x    frame=  246 fps=6.8 q=-0.0 q=-1.0 size= 2646000kB time=00:00:42.99 bitrate=504139.9kbits/s speed=1.19x    frame=  249 fps=6.8 q=-0.0 q=-1.0 size= 2678400kB time=00:00:43.49 bitrate=504446.9kbits/s speed=1.19x    frame=  252 fps=6.8 q=-0.0 q=-1.0 size= 2710800kB time=00:00:43.99 bitrate=504746.8kbits/s speed=1.18x    frame=  254 fps=6.7 q=-0.0 q=-1.0 size= 2732400kB time=00:00:44.32 bitrate=504958.2kbits/s speed=1.18x    frame=  258 fps=6.7 q=-0.0 q=-1.0 size= 2775600kB time=00:00:45.09 bitrate=504240.5kbits/s speed=1.18x    frame=  261 fps=6.7 q=-0.0 q=-1.0 size= 2808000kB time=00:00:45.60 bitrate=504399.4kbits/s speed=1.18x    frame=  265 fps=6.7 q=-0.0 q=-1.0 size= 2851200kB time=00:00:46.16 bitrate=505978.9kbits/s speed=1.16x    frame=  270 fps=6.7 q=-0.0 q=-1.0 size= 2905200kB time=00:00:46.99 bitrate=506423.4kbits/s speed=1.17x    frame=  273 fps=6.7 q=-0.0 q=-1.0 size= 2937600kB time=00:00:47.58 bitrate=505680.3kbits/s speed=1.17x    frame=  277 fps=6.7 q=-0.0 q=-1.0 size= 2980800kB time=00:00:48.16 bitrate=507011.4kbits/s speed=1.16x    frame=  280 fps=6.7 q=-0.0 q=-1.0 size= 3013200kB time=00:00:48.66 bitrate=507256.2kbits/s speed=1.16x    frame=  283 fps=6.7 q=-0.0 q=-1.0 size= 3045600kB time=00:00:49.16 bitrate=507496.1kbits/s speed=1.16x    frame=  287 fps=6.7 q=-0.0 q=-1.0 size= 3088800kB time=00:00:49.82 bitrate=507815.2kbits/s speed=1.16x    frame=  289 fps=6.6 q=-0.0 q=-1.0 size= 3110400kB time=00:00:50.16 bitrate=507961.5kbits/s speed=1.15x    [segment @ 0x559b854d1e40] Opening 'data/recordings/C0162_00000005.mp4' for writing
frame=  294 fps=6.6 q=-0.0 q=-1.0 size= 3164400kB time=00:00:51.04 bitrate=507841.4kbits/s speed=1.15x    frame=  297 fps=6.6 q=-0.0 q=-1.0 size= 3196800kB time=00:00:51.49 bitrate=508557.2kbits/s speed=1.15x    frame=  301 fps=6.6 q=-0.0 q=-1.0 size= 3240000kB time=00:00:52.16 bitrate=508838.8kbits/s speed=1.15x    frame=  304 fps=6.6 q=-0.0 q=-1.0 size= 3272400kB time=00:00:52.66 bitrate=509057.3kbits/s speed=1.15x    frame=  307 fps=6.6 q=-0.0 q=-1.0 size= 3304800kB time=00:00:53.16 bitrate=509262.2kbits/s speed=1.15x    frame=  311 fps=6.6 q=-0.0 q=-1.0 size= 3348000kB time=00:00:53.82 bitrate=509526.3kbits/s speed=1.15x    frame=  313 fps=6.6 q=-0.0 q=-1.0 size= 3369600kB time=00:00:54.16 bitrate=509670.1kbits/s speed=1.13x    frame=  319 fps=6.6 q=-0.0 q=-1.0 size= 3434400kB time=00:00:55.16 bitrate=510053.9kbits/s speed=1.14x    frame=  321 fps=6.6 q=-0.0 q=-1.0 size= 3456000kB time=00:00:55.58 bitrate=509301.3kbits/s speed=1.14x    frame=  325 fps=6.5 q=-0.0 q=-1.0 size= 3499200kB time=00:00:56.16 bitrate=510415.0kbits/s speed=1.13x    frame=  330 fps=6.6 q=-0.0 q=-1.0 size= 3553200kB time=00:00:56.99 bitrate=510716.6kbits/s speed=1.14x    frame=  333 fps=6.6 q=-0.0 q=-1.0 size= 3585600kB time=00:00:57.49 bitrate=510891.6kbits/s speed=1.13x    frame=  336 fps=6.6 q=-0.0 q=-1.0 size= 3618000kB time=00:00:57.99 bitrate=511063.6kbits/s speed=1.13x    frame=  339 fps=6.5 q=-0.0 q=-1.0 size= 3650400kB time=00:00:58.49 bitrate=511232.7kbits/s speed=1.13x    frame=  342 fps=6.5 q=-0.0 q=-1.0 size= 3682800kB time=00:00:59.10 bitrate=510404.5kbits/s speed=1.13x    frame=  346 fps=6.6 q=-0.0 q=-1.0 size= 3726000kB time=00:00:59.66 bitrate=511613.3kbits/s speed=1.13x    frame=  349 fps=6.5 q=-0.0 q=-1.0 size= 3758400kB time=00:01:00.16 bitrate=511773.1kbits/s speed=1.12x    [segment @ 0x559b854d1e40] Opening 'data/recordings/C0162_00000006.mp4' for writing
frame=  354 fps=6.5 q=-0.0 q=-1.0 size= 3812400kB time=00:01:01.02 bitrate=511743.3kbits/s speed=1.13x    frame=  357 fps=6.5 q=-0.0 q=-1.0 size= 3844800kB time=00:01:01.54 bitrate=511798.7kbits/s speed=1.12x    frame=  360 fps=6.5 q=-0.0 q=-1.0 size= 3877200kB time=00:01:01.99 bitrate=512339.7kbits/s speed=1.12x    frame=  361 fps=6.5 q=-0.0 q=-1.0 size= 3888000kB time=00:01:02.16 bitrate=512386.6kbits/s speed=1.12x    frame=  366 fps=6.5 q=-0.0 q=-1.0 size= 3942000kB time=00:01:02.99 bitrate=512633.5kbits/s speed=1.12x    frame=  369 fps=6.5 q=-0.0 q=-1.0 size= 3974400kB time=00:01:03.58 bitrate=512011.3kbits/s speed=1.12x    frame=  372 fps=6.5 q=-0.0 q=-1.0 size= 4006800kB time=00:01:04.10 bitrate=512062.3kbits/s speed=1.12x    frame=  376 fps=6.5 q=-0.0 q=-1.0 size= 4050000kB time=00:01:04.65 bitrate=513116.0kbits/s speed=1.12x    frame=  379 fps=6.5 q=-0.0 q=-1.0 size= 4082400kB time=00:01:05.15 bitrate=513252.0kbits/s speed=1.12x    frame=  382 fps=6.5 q=-0.0 q=-1.0 size= 4114800kB time=00:01:05.65 bitrate=513386.0kbits/s speed=1.11x    frame=  385 fps=6.5 q=-0.0 q=-1.0 size= 4147200kB time=00:01:06.16 bitrate=513510.1kbits/s speed=1.11x    frame=  390 fps=6.5 q=-0.0 q=-1.0 size= 4201200kB time=00:01:06.99 bitrate=513728.3kbits/s speed=1.11x    frame=  393 fps=6.5 q=-0.0 q=-1.0 size= 4233600kB time=00:01:07.55 bitrate=513368.7kbits/s speed=1.11x    frame=  396 fps=6.5 q=-0.0 q=-1.0 size= 4266000kB time=00:01:07.99 bitrate=513980.0kbits/s speed=1.11x    frame=  399 fps=6.5 q=-0.0 q=-1.0 size= 4298400kB time=00:01:08.49 bitrate=514103.1kbits/s speed=1.11x    frame=  403 fps=6.5 q=-0.0 q=-1.0 size= 4341600kB time=00:01:09.16 bitrate=514261.9kbits/s speed=1.11x    frame=  406 fps=6.5 q=-0.0 q=-1.0 size= 4374000kB time=00:01:09.66 bitrate=514380.9kbits/s speed=1.11x    frame=  409 fps=6.4 q=-0.0 q=-1.0 size= 4406400kB time=00:01:10.16 bitrate=514498.2kbits/s speed= 1.1x    [segment @ 0x559b854d1e40] Opening 'data/recordings/C0162_00000007.mp4' for writing
frame=  414 fps=6.5 q=-0.0 q=-1.0 size= 4460400kB time=00:01:10.99 bitrate=514692.5kbits/s speed=1.11x    frame=  417 fps=6.4 q=-0.0 q=-1.0 size= 4492800kB time=00:01:11.49 bitrate=514805.4kbits/s speed=1.11x    frame=  420 fps=6.4 q=-0.0 q=-1.0 size= 4525200kB time=00:01:11.99 bitrate=514916.8kbits/s speed= 1.1x    frame=  423 fps=6.4 q=-0.0 q=-1.0 size= 4557600kB time=00:01:12.49 bitrate=515026.6kbits/s speed= 1.1x    frame=  427 fps=6.4 q=-0.0 q=-1.0 size= 4600800kB time=00:01:13.15 bitrate=515175.5kbits/s speed= 1.1x    frame=  430 fps=6.4 q=-0.0 q=-1.0 size= 4633200kB time=00:01:13.65 bitrate=515281.8kbits/s speed= 1.1x    frame=  433 fps=6.4 q=-0.0 q=-1.0 size= 4665600kB time=00:01:14.15 bitrate=515393.7kbits/s speed= 1.1x    frame=  438 fps=6.4 q=-0.0 q=-1.0 size= 4719600kB time=00:01:15.04 bitrate=515197.1kbits/s speed= 1.1x    frame=  442 fps=6.4 q=-0.0 q=-1.0 size= 4762800kB time=00:01:15.65 bitrate=515699.9kbits/s speed= 1.1x    frame=  445 fps=6.4 q=-0.0 q=-1.0 size= 4795200kB time=00:01:16.15 bitrate=515792.6kbits/s speed=1.09x    frame=  450 fps=6.4 q=-0.0 q=-1.0 size= 4849200kB time=00:01:16.99 bitrate=515957.7kbits/s speed= 1.1x    frame=  454 fps=6.4 q=-0.0 q=-1.0 size= 4892400kB time=00:01:17.65 bitrate=516083.2kbits/s speed= 1.1x    frame=  457 fps=6.4 q=-0.0 q=-1.0 size= 4924800kB time=00:01:18.15 bitrate=516177.7kbits/s speed= 1.1x    frame=  459 fps=6.4 q=-0.0 q=-1.0 size= 4946400kB time=00:01:18.49 bitrate=516242.1kbits/s speed=1.09x    frame=  463 fps=6.4 q=-0.0 q=-1.0 size= 4989600kB time=00:01:19.15 bitrate=516362.9kbits/s speed=1.09x    frame=  466 fps=6.4 q=-0.0 q=-1.0 size= 5022000kB time=00:01:19.65 bitrate=516453.8kbits/s speed=1.09x    frame=  469 fps=6.4 q=-0.0 q=-1.0 size= 5054400kB time=00:01:20.15 bitrate=516543.5kbits/s speed=1.09x    [segment @ 0x559b854d1e40] Opening 'data/recordings/C0162_00000008.mp4' for writing
frame=  474 fps=6.4 q=-0.0 q=-1.0 size= 5108400kB time=00:01:20.99 bitrate=516692.8kbits/s speed=1.09x    frame=  477 fps=6.4 q=-0.0 q=-1.0 size= 5140800kB time=00:01:21.49 bitrate=516779.6kbits/s speed=1.09x    frame=  480 fps=6.4 q=-0.0 q=-1.0 size= 5173200kB time=00:01:22.08 bitrate=516280.1kbits/s speed=1.09x    frame=  484 fps=6.4 q=-0.0 q=-1.0 size= 5216400kB time=00:01:22.65 bitrate=516982.2kbits/s speed=1.09x    frame=  487 fps=6.4 q=-0.0 q=-1.0 size= 5248800kB time=00:01:23.15 bitrate=517065.6kbits/s speed=1.09x    frame=  491 fps=6.4 q=-0.0 q=-1.0 size= 5292000kB time=00:01:23.82 bitrate=517173.1kbits/s speed=1.09x    frame=  493 fps=6.3 q=-0.0 q=-1.0 size= 5313600kB time=00:01:24.15 bitrate=517235.4kbits/s speed=1.08x    frame=  498 fps=6.4 q=-0.0 q=-1.0 size= 5367600kB time=00:01:24.99 bitrate=517364.7kbits/s speed=1.09x    frame=  502 fps=6.4 q=-0.0 q=-1.0 size= 5410800kB time=00:01:25.65 bitrate=517473.7kbits/s speed=1.09x    frame=  505 fps=6.4 q=-0.0 q=-1.0 size= 5443200kB time=00:01:26.15 bitrate=517545.2kbits/s speed=1.09x    frame=  508 fps=6.4 q=-0.0 q=-1.0 size= 5475600kB time=00:01:26.65 bitrate=517621.9kbits/s speed=1.09x    frame=  511 fps=6.4 q=-0.0 q=-1.0 size= 5508000kB time=00:01:27.15 bitrate=517697.8kbits/s speed=1.08x    frame=  514 fps=6.4 q=-0.0 q=-1.0 size= 5540400kB time=00:01:27.71 bitrate=517424.9kbits/s speed=1.08x    frame=  517 fps=6.4 q=-0.0 q=-1.0 size= 5572800kB time=00:01:28.15 bitrate=517846.9kbits/s speed=1.08x    frame=  521 fps=6.3 q=-0.0 q=-1.0 size= 5616000kB time=00:01:28.82 bitrate=517942.5kbits/s speed=1.08x    frame=  525 fps=6.3 q=-0.0 q=-1.0 size= 5659200kB time=00:01:29.49 bitrate=518042.4kbits/s speed=1.08x    frame=  528 fps=6.3 q=-0.0 q=-1.0 size= 5691600kB time=00:01:30.02 bitrate=517941.2kbits/s speed=1.08x    [segment @ 0x559b854d1e40] Opening 'data/recordings/C0162_00000009.mp4' for writing
frame=  530 fps=6.3 q=-0.0 q=-1.0 size= 5713200kB time=00:01:30.32 bitrate=518162.4kbits/s speed=1.08x    frame=  535 fps=6.3 q=-0.0 q=-1.0 size= 5767200kB time=00:01:31.15 bitrate=518274.5kbits/s speed=1.08x    frame=  538 fps=6.3 q=-0.0 q=-1.0 size= 5799600kB time=00:01:31.65 bitrate=518343.1kbits/s speed=1.08x    frame=  541 fps=6.3 q=-0.0 q=-1.0 size= 5832000kB time=00:01:32.15 bitrate=518410.9kbits/s speed=1.08x    frame=  547 fps=6.3 q=-0.0 q=-1.0 size= 5896800kB time=00:01:33.15 bitrate=518549.9kbits/s speed=1.08x    frame=  550 fps=6.3 q=-0.0 q=-1.0 size= 5929200kB time=00:01:33.65 bitrate=518615.5kbits/s speed=1.08x    frame=  553 fps=6.3 q=-0.0 q=-1.0 size= 5961600kB time=00:01:34.15 bitrate=518686.0kbits/s speed=1.07x    frame=  558 fps=6.3 q=-0.0 q=-1.0 size= 6015600kB time=00:01:34.99 bitrate=518789.0kbits/s speed=1.08x    frame=  561 fps=6.3 q=-0.0 q=-1.0 size= 6048000kB time=00:01:35.48 bitrate=518857.5kbits/s speed=1.08x    frame=  564 fps=6.3 q=-0.0 q=-1.0 size= 6080400kB time=00:01:35.98 bitrate=518919.9kbits/s speed=1.08x    frame=  565 fps=6.3 q=-0.0 q=-1.0 size= 6091200kB time=00:01:36.15 bitrate=518933.4kbits/s speed=1.07x    frame=  570 fps=6.3 q=-0.0 q=-1.0 size= 6145200kB time=00:01:37.06 bitrate=518658.1kbits/s speed=1.08x    frame=  573 fps=6.3 q=-0.0 q=-1.0 size= 6177600kB time=00:01:37.49 bitrate=519098.0kbits/s speed=1.07x    frame=  577 fps=6.3 q=-0.0 q=-1.0 size= 6220800kB time=00:01:38.15 bitrate=519176.0kbits/s speed=1.08x    frame=  580 fps=6.3 q=-0.0 q=-1.0 size= 6253200kB time=00:01:38.65 bitrate=519235.1kbits/s speed=1.07x    frame=  583 fps=6.3 q=-0.0 q=-1.0 size= 6285600kB time=00:01:39.15 bitrate=519293.7kbits/s speed=1.07x    frame=  586 fps=6.3 q=-0.0 q=-1.0 size= 6318000kB time=00:01:39.68 bitrate=519206.1kbits/s speed=1.07x    frame=  589 fps=6.3 q=-0.0 q=-1.0 size= 6350400kB time=00:01:40.15 bitrate=519409.0kbits/s speed=1.07x    [segment @ 0x559b854d1e40] Opening 'data/recordings/C0162_00000010.mp4' for writing
frame=  594 fps=6.3 q=-0.0 q=-1.0 size= 6404400kB time=00:01:40.99 bitrate=519505.0kbits/s speed=1.07x    frame=  597 fps=6.3 q=-0.0 q=-1.0 size= 6436800kB time=00:01:41.54 bitrate=519300.2kbits/s speed=1.07x    frame=  600 fps=6.3 q=-0.0 q=-1.0 size= 6469200kB time=00:01:41.99 bitrate=519616.2kbits/s speed=1.07x    frame=  603 fps=6.3 q=-0.0 q=-1.0 size= 6501600kB time=00:01:42.48 bitrate=519676.0kbits/s speed=1.07x    frame=  607 fps=6.3 q=-0.0 q=-1.0 size= 6544800kB time=00:01:43.15 bitrate=519751.5kbits/s speed=1.07x    frame=  610 fps=6.3 q=-0.0 q=-1.0 size= 6577200kB time=00:01:43.65 bitrate=519805.0kbits/s speed=1.07x    frame=  613 fps=6.3 q=-0.0 q=-1.0 size= 6609600kB time=00:01:44.15 bitrate=519858.0kbits/s speed=1.07x    frame=  617 fps=6.3 q=-0.0 q=-1.0 size= 6652800kB time=00:01:44.82 bitrate=519926.2kbits/s speed=1.07x    frame=  620 fps=6.3 q=-0.0 q=-1.0 size= 6685200kB time=00:01:45.32 bitrate=519978.0kbits/s speed=1.07x    frame=  623 fps=6.3 q=-0.0 q=-1.0 size= 6717600kB time=00:01:45.89 bitrate=519681.0kbits/s speed=1.07x    frame=  625 fps=6.3 q=-0.0 q=-1.0 size= 6739200kB time=00:01:46.15 bitrate=520060.0kbits/s speed=1.07x    frame=  630 fps=6.3 q=-0.0 q=-1.0 size= 6793200kB time=00:01:46.98 bitrate=520145.6kbits/s speed=1.07x    frame=  633 fps=6.3 q=-0.0 q=-1.0 size= 6825600kB time=00:01:47.48 bitrate=520195.4kbits/s speed=1.07x    frame=  636 fps=6.3 q=-0.0 q=-1.0 size= 6858000kB time=00:01:47.98 bitrate=520244.7kbits/s speed=1.07x    frame=  638 fps=6.3 q=-0.0 q=-1.0 size= 6879600kB time=00:01:48.32 bitrate=520274.1kbits/s speed=1.06x    frame=  643 fps=6.3 q=-0.0 q=-1.0 size= 6933600kB time=00:01:49.15 bitrate=520356.4kbits/s speed=1.07x    frame=  646 fps=6.3 q=-0.0 q=-1.0 size= 6966000kB time=00:01:49.65 bitrate=520404.2kbits/s speed=1.07x    frame=  649 fps=6.3 q=-0.0 q=-1.0 size= 6998400kB time=00:01:50.15 bitrate=520451.5kbits/s speed=1.07x    [segment @ 0x559b854d1e40] Opening 'data/recordings/C0162_00000011.mp4' for writing
frame=  652 fps=6.3 q=-0.0 q=-1.0 size= 7030800kB time=00:01:50.65 bitrate=520498.5kbits/s speed=1.07x    frame=  655 fps=6.3 q=-0.0 q=-1.0 size= 7063200kB time=00:01:51.15 bitrate=520545.0kbits/s speed=1.07x    frame=  658 fps=6.3 q=-0.0 q=-1.0 size= 7095600kB time=00:01:51.65 bitrate=520591.1kbits/s speed=1.06x    frame=  661 fps=6.3 q=-0.0 q=-1.0 size= 7128000kB time=00:01:52.15 bitrate=520646.1kbits/s speed=1.06x    frame=  666 fps=6.3 q=-0.0 q=-1.0 size= 7182000kB time=00:01:53.06 bitrate=520382.3kbits/s speed=1.06x    frame=  669 fps=6.3 q=-0.0 q=-1.0 size= 7214400kB time=00:01:53.57 bitrate=520373.4kbits/s speed=1.06x    frame=  673 fps=6.3 q=-0.0 q=-1.0 size= 7257600kB time=00:01:54.15 bitrate=520824.7kbits/s speed=1.06x    frame=  676 fps=6.3 q=-0.0 q=-1.0 size= 7290000kB time=00:01:54.65 bitrate=520868.4kbits/s speed=1.06x    frame=  679 fps=6.3 q=-0.0 q=-1.0 size= 7322400kB time=00:01:55.15 bitrate=520911.7kbits/s speed=1.06x    frame=  682 fps=6.3 q=-0.0 q=-1.0 size= 7354800kB time=00:01:55.65 bitrate=520954.6kbits/s speed=1.06x    frame=  685 fps=6.2 q=-0.0 q=-1.0 size= 7387200kB time=00:01:56.15 bitrate=520992.7kbits/s speed=1.06x    frame=  690 fps=6.3 q=-0.0 q=-1.0 size= 7441200kB time=00:01:56.98 bitrate=521064.4kbits/s speed=1.06x    frame=  694 fps=6.3 q=-0.0 q=-1.0 size= 7484400kB time=00:01:57.65 bitrate=521118.3kbits/s speed=1.06x    frame=  697 fps=6.2 q=-0.0 q=-1.0 size= 7516800kB time=00:01:58.15 bitrate=521159.4kbits/s speed=1.06x    frame=  702 fps=6.3 q=-0.0 q=-1.0 size= 7570800kB time=00:01:58.98 bitrate=521228.7kbits/s speed=1.06x    frame=  705 fps=6.3 q=-0.0 q=-1.0 size= 7603200kB time=00:01:59.48 bitrate=521268.9kbits/s speed=1.06x    frame=  708 fps=6.3 q=-0.0 q=-1.0 size= 7635600kB time=00:02:00.03 bitrate=521096.3kbits/s speed=1.06x    frame=  709 fps=6.2 q=-0.0 q=-1.0 size= 7646400kB time=00:02:00.15 bitrate=521320.6kbits/s speed=1.06x    [segment @ 0x559b854d1e40] Opening 'data/recordings/C0162_00000012.mp4' for writing
frame=  714 fps=6.2 q=-0.0 q=-1.0 size= 7700400kB time=00:02:01.06 bitrate=521073.5kbits/s speed=1.06x    frame=  718 fps=6.3 q=-0.0 q=-1.0 size= 7743600kB time=00:02:01.65 bitrate=521438.0kbits/s speed=1.06x    frame=  721 fps=6.2 q=-0.0 q=-1.0 size= 7776000kB time=00:02:02.15 bitrate=521485.0kbits/s speed=1.06x    frame=  726 fps=6.2 q=-0.0 q=-1.0 size= 7830000kB time=00:02:03.04 bitrate=521300.0kbits/s speed=1.06x    frame=  730 fps=6.3 q=-0.0 q=-1.0 size= 7873200kB time=00:02:03.65 bitrate=521598.5kbits/s speed=1.06x    frame=  733 fps=6.3 q=-0.0 q=-1.0 size= 7905600kB time=00:02:04.15 bitrate=521635.7kbits/s speed=1.06x    frame=  736 fps=6.2 q=-0.0 q=-1.0 size= 7938000kB time=00:02:04.65 bitrate=521672.7kbits/s speed=1.06x    frame=  739 fps=6.2 q=-0.0 q=-1.0 size= 7970400kB time=00:02:05.15 bitrate=521709.3kbits/s speed=1.06x    frame=  743 fps=6.2 q=-0.0 q=-1.0 size= 8013600kB time=00:02:05.82 bitrate=521756.3kbits/s speed=1.06x    frame=  745 fps=6.2 q=-0.0 q=-1.0 size= 8035200kB time=00:02:06.15 bitrate=521777.6kbits/s speed=1.05x    frame=  750 fps=6.2 q=-0.0 q=-1.0 size= 8089200kB time=00:02:06.98 bitrate=521838.4kbits/s speed=1.06x    frame=  754 fps=6.2 q=-0.0 q=-1.0 size= 8132400kB time=00:02:07.65 bitrate=521884.1kbits/s speed=1.06x    frame=  757 fps=6.2 q=-0.0 q=-1.0 size= 8164800kB time=00:02:08.15 bitrate=521919.0kbits/s speed=1.06x    frame=  760 fps=6.2 q=-0.0 q=-1.0 size= 8197200kB time=00:02:08.65 bitrate=521953.7kbits/s speed=1.06x    frame=  763 fps=6.2 q=-0.0 q=-1.0 size= 8229600kB time=00:02:09.18 bitrate=521846.9kbits/s speed=1.06x    frame=  766 fps=6.2 q=-0.0 q=-1.0 size= 8262000kB time=00:02:09.70 bitrate=521833.3kbits/s speed=1.06x    frame=  769 fps=6.2 q=-0.0 q=-1.0 size= 8294400kB time=00:02:10.15 bitrate=522056.1kbits/s speed=1.05x    [segment @ 0x559b854d1e40] Opening 'data/recordings/C0162_00000013.mp4' for writing
frame=  774 fps=6.2 q=-0.0 q=-1.0 size= 8348400kB time=00:02:10.98 bitrate=522113.3kbits/s speed=1.05x    frame=  778 fps=6.2 q=-0.0 q=-1.0 size= 8391600kB time=00:02:11.65 bitrate=522156.2kbits/s speed=1.05x    frame=  781 fps=6.2 q=-0.0 q=-1.0 size= 8424000kB time=00:02:12.15 bitrate=522197.0kbits/s speed=1.05x    frame=  784 fps=6.2 q=-0.0 q=-1.0 size= 8456400kB time=00:02:12.65 bitrate=522229.6kbits/s speed=1.05x    frame=  787 fps=6.2 q=-0.0 q=-1.0 size= 8488800kB time=00:02:13.15 bitrate=522261.9kbits/s speed=1.05x    frame=  791 fps=6.2 q=-0.0 q=-1.0 size= 8532000kB time=00:02:13.81 bitrate=522303.3kbits/s speed=1.05x    frame=  793 fps=6.2 q=-0.0 q=-1.0 size= 8553600kB time=00:02:14.15 bitrate=522325.9kbits/s speed=1.05x    frame=  798 fps=6.2 q=-0.0 q=-1.0 size= 8607600kB time=00:02:14.98 bitrate=522375.8kbits/s speed=1.05x    frame=  801 fps=6.2 q=-0.0 q=-1.0 size= 8640000kB time=00:02:15.48 bitrate=522410.9kbits/s speed=1.05x    frame=  805 fps=6.2 q=-0.0 q=-1.0 size= 8683200kB time=00:02:16.15 bitrate=522447.1kbits/s speed=1.05x    frame=  808 fps=6.2 q=-0.0 q=-1.0 size= 8715600kB time=00:02:16.65 bitrate=522477.8kbits/s speed=1.05x    frame=  811 fps=6.2 q=-0.0 q=-1.0 size= 8748000kB time=00:02:17.15 bitrate=522508.3kbits/s speed=1.05x    frame=  814 fps=6.2 q=-0.0 q=-1.0 size= 8780400kB time=00:02:17.70 bitrate=522356.7kbits/s speed=1.05x    frame=  817 fps=6.2 q=-0.0 q=-1.0 size= 8812800kB time=00:02:18.15 bitrate=522568.6kbits/s speed=1.05x    frame=  822 fps=6.2 q=-0.0 q=-1.0 size= 8866800kB time=00:02:18.98 bitrate=522619.5kbits/s speed=1.05x    frame=  825 fps=6.2 q=-0.0 q=-1.0 size= 8899200kB time=00:02:19.48 bitrate=522649.0kbits/s speed=1.05x    frame=  828 fps=6.2 q=-0.0 q=-1.0 size= 8931600kB time=00:02:20.06 bitrate=522368.7kbits/s speed=1.05x    [segment @ 0x559b854d1e40] Opening 'data/recordings/C0162_00000014.mp4' for writing
frame=  830 fps=6.2 q=-0.0 q=-1.0 size= 8953200kB time=00:02:20.31 bitrate=522698.9kbits/s speed=1.05x    frame=  835 fps=6.2 q=-0.0 q=-1.0 size= 9007200kB time=00:02:21.15 bitrate=522744.5kbits/s speed=1.05x    frame=  838 fps=6.2 q=-0.0 q=-1.0 size= 9039600kB time=00:02:21.65 bitrate=522776.7kbits/s speed=1.05x    frame=  841 fps=6.2 q=-0.0 q=-1.0 size= 9072000kB time=00:02:22.15 bitrate=522808.8kbits/s speed=1.05x    frame=  846 fps=6.2 q=-0.0 q=-1.0 size= 9126000kB time=00:02:23.07 bitrate=522517.2kbits/s speed=1.05x    frame=  850 fps=6.2 q=-0.0 q=-1.0 size= 9169200kB time=00:02:23.65 bitrate=522892.7kbits/s speed=1.05x    frame=  853 fps=6.2 q=-0.0 q=-1.0 size= 9201600kB time=00:02:24.15 bitrate=522920.2kbits/s speed=1.05x    frame=  858 fps=6.2 q=-0.0 q=-1.0 size= 9255600kB time=00:02:24.98 bitrate=522967.0kbits/s speed=1.05x    frame=  861 fps=6.2 q=-0.0 q=-1.0 size= 9288000kB time=00:02:25.48 bitrate=522994.0kbits/s speed=1.05x    frame=  864 fps=6.2 q=-0.0 q=-1.0 size= 9320400kB time=00:02:26.02 bitrate=522888.6kbits/s speed=1.05x    frame=  865 fps=6.2 q=-0.0 q=-1.0 size= 9331200kB time=00:02:26.15 bitrate=523025.1kbits/s speed=1.05x    frame=  870 fps=6.2 q=-0.0 q=-1.0 size= 9385200kB time=00:02:27.04 bitrate=522857.3kbits/s speed=1.05x    frame=  874 fps=6.2 q=-0.0 q=-1.0 size= 9428400kB time=00:02:27.65 bitrate=523104.5kbits/s speed=1.05x    frame=  876 fps=6.2 q=-0.0 q=-1.0 size= 9450000kB time=00:02:28.06 bitrate=522826.5kbits/s speed=1.05x    frame=  877 fps=6.2 q=-0.0 q=-1.0 size= 9460800kB time=00:02:28.15 bitrate=523130.6kbits/s speed=1.05x    frame=  883 fps=6.2 q=-0.0 q=-1.0 size= 9525600kB time=00:02:29.15 bitrate=523182.3kbits/s speed=1.05x    frame=  886 fps=6.2 q=-0.0 q=-1.0 size= 9558000kB time=00:02:29.65 bitrate=523207.9kbits/s speed=1.05x    frame=  889 fps=6.2 q=-0.0 q=-1.0 size= 9590400kB time=00:02:30.15 bitrate=523233.3kbits/s speed=1.05x    [segment @ 0x559b854d1e40] Opening 'data/recordings/C0162_00000015.mp4' for writing
frame=  892 fps=6.2 q=-0.0 q=-1.0 size= 9622800kB time=00:02:30.65 bitrate=523258.5kbits/s speed=1.05x    frame=  895 fps=6.2 q=-0.0 q=-1.0 size= 9655200kB time=00:02:31.15 bitrate=523283.6kbits/s speed=1.05x    frame=  898 fps=6.2 q=-0.0 q=-1.0 size= 9687600kB time=00:02:31.65 bitrate=523308.5kbits/s speed=1.05x    frame=  901 fps=6.2 q=-0.0 q=-1.0 size= 9720000kB time=00:02:32.15 bitrate=523340.2kbits/s speed=1.04x    frame=  906 fps=6.2 q=-0.0 q=-1.0 size= 9774000kB time=00:02:32.98 bitrate=523378.8kbits/s speed=1.05x    frame=  909 fps=6.2 q=-0.0 q=-1.0 size= 9806400kB time=00:02:33.48 bitrate=523403.1kbits/s speed=1.05x    frame=  912 fps=6.2 q=-0.0 q=-1.0 size= 9838800kB time=00:02:33.98 bitrate=523427.2kbits/s speed=1.05x    frame=  915 fps=6.2 q=-0.0 q=-1.0 size= 9871200kB time=00:02:34.48 bitrate=523451.2kbits/s speed=1.05x    frame=  919 fps=6.2 q=-0.0 q=-1.0 size= 9914400kB time=00:02:35.15 bitrate=523485.2kbits/s speed=1.05x    frame=  922 fps=6.2 q=-0.0 q=-1.0 size= 9946800kB time=00:02:35.65 bitrate=523508.9kbits/s speed=1.05x    frame=  925 fps=6.2 q=-0.0 q=-1.0 size= 9979200kB time=00:02:36.15 bitrate=523529.0kbits/s speed=1.04x    frame=  930 fps=6.2 q=-0.0 q=-1.0 size=10033200kB time=00:02:36.98 bitrate=523568.9kbits/s speed=1.05x    frame=  934 fps=6.2 q=-0.0 q=-1.0 size=10076400kB time=00:02:37.65 bitrate=523598.6kbits/s speed=1.05x    frame=  937 fps=6.2 q=-0.0 q=-1.0 size=10108800kB time=00:02:38.15 bitrate=523621.5kbits/s speed=1.04x    frame=  942 fps=6.2 q=-0.0 q=-1.0 size=10162800kB time=00:02:38.98 bitrate=523660.4kbits/s speed=1.04x    frame=  946 fps=6.2 q=-0.0 q=-1.0 size=10206000kB time=00:02:39.65 bitrate=523689.3kbits/s speed=1.04x    frame=  949 fps=6.2 q=-0.0 q=-1.0 size=10238400kB time=00:02:40.15 bitrate=523711.6kbits/s speed=1.04x    [segment @ 0x559b854d1e40] Opening 'data/recordings/C0162_00000016.mp4' for writing
frame=  954 fps=6.2 q=-0.0 q=-1.0 size=10292400kB time=00:02:40.98 bitrate=523749.6kbits/s speed=1.04x    frame=  957 fps=6.2 q=-0.0 q=-1.0 size=10324800kB time=00:02:41.50 bitrate=523690.7kbits/s speed=1.04x    frame=  960 fps=6.2 q=-0.0 q=-1.0 size=10357200kB time=00:02:41.98 bitrate=523793.4kbits/s speed=1.04x    frame=  962 fps=6.2 q=-0.0 q=-1.0 size=10378800kB time=00:02:42.31 bitrate=523812.2kbits/s speed=1.04x    frame=  967 fps=6.2 q=-0.0 q=-1.0 size=10432800kB time=00:02:43.14 bitrate=523849.1kbits/s speed=1.04x    frame=  970 fps=6.2 q=-0.0 q=-1.0 size=10465200kB time=00:02:43.64 bitrate=523870.5kbits/s speed=1.04x    frame=  973 fps=6.2 q=-0.0 q=-1.0 size=10497600kB time=00:02:44.14 bitrate=523891.7kbits/s speed=1.04x    frame=  978 fps=6.2 q=-0.0 q=-1.0 size=10551600kB time=00:02:45.02 bitrate=523778.9kbits/s speed=1.04x    frame=  981 fps=6.2 q=-0.0 q=-1.0 size=10584000kB time=00:02:45.54 bitrate=523762.3kbits/s speed=1.04x    frame=  984 fps=6.2 q=-0.0 q=-1.0 size=10616400kB time=00:02:45.98 bitrate=523969.6kbits/s speed=1.04x    frame=  986 fps=6.2 q=-0.0 q=-1.0 size=10638000kB time=00:02:46.31 bitrate=523978.1kbits/s speed=1.04x    frame=  991 fps=6.2 q=-0.0 q=-1.0 size=10692000kB time=00:02:47.15 bitrate=524013.3kbits/s speed=1.04x    frame=  994 fps=6.2 q=-0.0 q=-1.0 size=10724400kB time=00:02:47.65 bitrate=524033.7kbits/s speed=1.04x    frame=  997 fps=6.2 q=-0.0 q=-1.0 size=10756800kB time=00:02:48.15 bitrate=524054.0kbits/s speed=1.04x    frame= 1002 fps=6.2 q=-0.0 q=-1.0 size=10810800kB time=00:02:48.98 bitrate=524088.5kbits/s speed=1.04x    frame= 1005 fps=6.2 q=-0.0 q=-1.0 size=10843200kB time=00:02:49.57 bitrate=523830.4kbits/s speed=1.04x    frame= 1009 fps=6.2 q=-0.0 q=-1.0 size=10886400kB time=00:02:50.15 bitrate=524133.7kbits/s speed=1.04x    [segment @ 0x559b854d1e40] Opening 'data/recordings/C0162_00000017.mp4' for writing
frame= 1014 fps=6.2 q=-0.0 q=-1.0 size=10940400kB time=00:02:50.98 bitrate=524167.5kbits/s speed=1.04x    frame= 1017 fps=6.2 q=-0.0 q=-1.0 size=10972800kB time=00:02:51.48 bitrate=524186.9kbits/s speed=1.04x    frame= 1021 fps=6.2 q=-0.0 q=-1.0 size=11016000kB time=00:02:52.14 bitrate=524217.8kbits/s speed=1.04x    frame= 1023 fps=6.2 q=-0.0 q=-1.0 size=11037600kB time=00:02:52.48 bitrate=524228.5kbits/s speed=1.04x    frame= 1027 fps=6.2 q=-0.0 q=-1.0 size=11080800kB time=00:02:53.14 bitrate=524256.0kbits/s speed=1.04x    frame= 1030 fps=6.2 q=-0.0 q=-1.0 size=11113200kB time=00:02:53.64 bitrate=524275.0kbits/s speed=1.04x    frame= 1033 fps=6.2 q=-0.0 q=-1.0 size=11145600kB time=00:02:54.14 bitrate=524293.8kbits/s speed=1.04x    frame= 1038 fps=6.2 q=-0.0 q=-1.0 size=11199600kB time=00:02:55.01 bitrate=524230.3kbits/s speed=1.04x    frame= 1042 fps=6.2 q=-0.0 q=-1.0 size=11242800kB time=00:02:55.64 bitrate=524349.7kbits/s speed=1.04x    